# xmcd
#
# Track frame offsets:
#	150
#	14028
#	29295
#	40287
#	53042
#	66757
#	80650
#	95568
#	107778
#	120088
#
# Disc length: 1768 seconds
#
# Revision: 1
# Processed by: cddbd v1.5.2PL0 Copyright (c) Steve Scherf et al.
# Submitted via: audiograbber 1.83.01
#
DISCID=7e06e60a
DTITLE=Ronnie Milsap - Night Things
DYEAR=1975
DGENRE=Country
TTITLE0=(After Sweet Memories) Play Born To Lose Again
TTITLE1=Who'll Turn Out The Lights (In Your World Tonight)
TTITLE2=Daydreams About Night Things
TTITLE3=I'm No Good At Goodbyes
TTITLE4=Just In Case
TTITLE5=Remember To Remind Me (I'm Leaving)
TTITLE6=Borrowed Angel
TTITLE7=Love Takes A Long Time To Die
TTITLE8=Linda On My Mind
TTITLE9=I'll Be There (If You Ever Want Me)
EXTD=
EXTT0=
EXTT1=
EXTT2=
EXTT3=
EXTT4=
EXTT5=
EXTT6=
EXTT7=
EXTT8=
EXTT9=
PLAYORDER=
